{"title":"State.of.Play.2009.SWESUB.DVDRip.XviD.AC3.(5.1).-Zen_Bud","uid":5580279,"size":1472472874,"categoryP":"video","categoryS":"movies","magnet":"?xt=urn:btih:0d3514be7a8985432374ec5b923147fe4de91dfd&amp;dn=State.of.Play.2009.SWESUB.DVDRip.XviD.AC3.%285.1%29.-Zen_Bud&amp;tr=udp%3A%2F%2Ftracker.openbittorrent.com%3A80&amp;tr=udp%3A%2F%2Fopen.demonii.com%3A1337&amp;tr=udp%3A%2F%2Ftracker.coppersurfer.tk%3A6969&amp;tr=udp%3A%2F%2Fexodus.desync.com%3A6969","seeders":1,"leechers":0,"uploader":"Zen_Bud","files":-1,"time":1274517854,"description":"General\nComplete name                    : State.Of.Play.avi\nFormat                           : AVI\nFile size                        : 1.37 GiB\nDuration                         : 2h 1mn\nOverall bit rate                 : 1 612 Kbps\n\nVideo\nID                               : 0\nFormat                           : MPEG-4 Visual\nCodec ID/Hint                    : XviD\nDuration                         : 2h 1mn\nBit rate                         : 1 217 Kbps\nWidth                            : 720 pixels\nHeight                           : 436 pixels\nDisplay aspect ratio             : 2.35:1\nColor space                      : YUV\nChroma subsampling               : 4:2:0\nBit depth                        : 8 bits\nScan type                        : Progressive\nBits/(Pixel*Frame)               : 0.155\nStream size                      : 1.04 GiB (75%)\nWriting library                  : XviD 1.1.2 (UTC 2006-11-01)\n\nAudio\nID                               : 1\nFormat                           : AC-3\nDuration                         : 2h 1mn\nBit rate                         : 384 Kbps\nChannel(s)                       : 6 channels\nChannel positions                : Front: L C R, Side: L R, LFE\nSampling rate                    : 48.0 KHz\nStream size                      : 335 MiB (24%)\n\n\n","torrent":{"xt":"urn:btih:0d3514be7a8985432374ec5b923147fe4de91dfd","amp;dn":"State.of.Play.2009.SWESUB.DVDRip.XviD.AC3.%285.1%29.-Zen_Bud","amp;tr":["udp%3A%2F%2Ftracker.openbittorrent.com%3A80","udp%3A%2F%2Fopen.demonii.com%3A1337","udp%3A%2F%2Ftracker.coppersurfer.tk%3A6969","udp%3A%2F%2Fexodus.desync.com%3A6969"],"infoHash":"0d3514be7a8985432374ec5b923147fe4de91dfd","infoHashBuffer":{"type":"Buffer","data":[13,53,20,190,122,137,133,67,35,116,236,91,146,49,71,254,77,233,29,253]},"announce":[],"urlList":[]}}